<?xml version="1.0" encoding="UTF-8"?>
<svg width="165.03mm" height="44.834mm" version="1.1" viewBox="0 0 165.03 44.834" xml:space="preserve" xmlns="http://www.w3.org/2000/svg"><g transform="translate(19.1 -56.754)"><path d="m36.605 68.036c-0.05933 6.0373 0.11944 12.088-0.09143 18.117-2.2571 3.4855-3.7855-1.1941-3.2131-3.4465 0.58115-1.9597-0.8924-1.8647-2.4047-1.7309-1.8712-0.48933-0.81089 1.9527-1.0849 3.0605-0.40938 2.9825 1.2744 6.5114 4.6209 6.6396 3.4637 0.59244 6.329-2.7639 5.817-6.0944v-16.545h-3.644zm10.407 3.2425h5.8674c-0.32515-1.0472 0.79718-3.5418-0.8744-3.2425h-8.6679v22.296h9.7894c-0.34354-0.9765 0.74767-3.3878-0.65585-3.3043h-5.4587v-6.6704h4.3234c-0.3306-1.0006 0.80875-3.4711-0.8744-3.119-1.0442-0.32408-3.4536 0.71703-3.4489-0.65585v-5.3043zm18.868 1.8838c0.345-3.8798-3.9118-6.4474-7.3782-5.2754-3.2181 0.66781-4.1039 4.1819-3.8008 7.0243 0.1136 4.0099-0.24802 8.0608 0.22205 12.041 1.2114 5.2649 10.24 4.8964 10.857-0.55197 0.21904-4.3996 0.0428-8.8288 0.0996-13.237zm-3.7058 12.136c-0.66149 4.4258-4.9121 1.0204-3.7675-1.9675 0.05058-3.697-0.10514-7.4046 0.08559-11.094 1.9508-3.4605 4.4704 0.52075 3.6816 3.0189v10.043zm9.3571-12.383c0.84328-4.3494 4.8031-0.66538 3.5822 2.2235 1.0347-0.32652 3.4435 0.72102 3.4278-0.65585 0.37836-2.9976-1.1284-6.8018-4.626-6.7953-3.7044-0.7005-6.7303 3.0092-5.8456 6.523 0.57862 4.5516 5.8146 6.2619 7.1281 10.373 0.77996 4.5289-5.4653 2.8463-3.9445-0.93364 0.41823-1.7535-2.0407-0.62978-3.0605-0.94511-0.84941 1.0911-0.32953 4.1067 0.4763 5.5661 2.3235 4.0363 9.5711 2.8197 10.047-1.9832 0.91418-4.5059-3.1137-7.5198-5.8232-10.401-0.7218-0.82577-1.3788-1.8299-1.3616-2.9711zm20.104 0.15436c0.37437-3.763-3.6981-6.3652-7.0939-5.1827-3.2022 0.68416-4.1146 4.1792-3.8072 7.0243 0.08851 3.9548-0.19472 7.9357 0.17605 11.871 0.46852 4.0493 6.4964 5.4042 8.656 1.9751-0.23694 1.4657 2.214 2.408 2.2543 0.91914v-10.585h-5.713c0.26261 1.059-0.7785 3.4219 1.093 2.872 1.8757-0.56189 0.84007 1.7876 1.0995 2.8419 0.15689 4.3186-5.1035 2.2087-3.8602-1.0988 0.06517-3.841-0.13471-7.703 0.10709-11.53 2.388-3.4311 4.1361 1.0293 3.506 3.4238 0.68162 0.34577 2.9065 0.38468 3.5822-8.46e-4 2e-5 -0.84328 3e-5 -1.6865 5e-5 -2.5298zm14.452 17.263c-0.96758-3.2631-1.9352-6.5262-2.9028-9.7894 3.6737-1.9472 3.1015-7.3428 1.7139-10.596-2.0202-2.8263-5.84-1.6619-8.8061-1.9108-1.9233-0.58135-0.96058 1.7234-1.184 2.8419v19.454c1.1241-0.25687 3.2976 0.53563 3.7058-0.4372v-8.8272c1.7916-0.62171 1.5766 1.3853 2.0196 2.5305 0.61354 2.2446 1.2271 4.4893 1.8406 6.7339h3.6131zm-7.4733-12.229v-6.9792c3.2607-0.86594 4.2093 2.5567 3.5099 5.1813-0.0603 2.0353-2.0737 1.8145-3.5099 1.7979zm8.8012 12.229c1.0869-0.27895 3.1517 0.56637 3.612-0.43302 0.19599-1.3997 0.39198-2.7995 0.58796-4.1992 1.179 0.16029 2.9073-0.31095 3.767 0.21651 0.206 1.4719 0.4121 2.9438 0.61811 4.4157 0.99939-0.27749 3.3293 0.56345 3.4762-0.43068-1.272-7.2885-2.5439-14.577-3.8159-21.866h-4.3543c-1.297 7.4321-2.594 14.864-3.891 22.296zm6.0836-17.016c0.45296 3.0675 0.90582 6.1351 1.3588 9.2026-1.177-0.15173-3.4675 0.65459-2.5526-1.297 0.3979-2.6352 0.79591-5.2704 1.1938-7.9057zm23.161 17.016v-22.296h-4.8792c-0.8853 4.6528-1.7705 9.3056-2.6558 13.958-0.87499-4.6528-1.75-9.3056-2.6249-13.958h-4.941v22.296c1.0472-0.32515 3.5418 0.79718 3.2425-0.8744v-15.925c1.0294 5.5998 2.0588 11.2 3.0881 16.799 1.4906 0.1885 2.7845 0.13967 2.5791-1.7185 0.95202-5.0373 1.904-10.075 2.856-15.112v16.83h3.3352z" fill="#0ff" opacity=".67585" stroke-width=".202" aria-label="JEOSGRAM"/><g transform="matrix(.20918 0 0 .20918 -19.1 56.754)" stroke-width="4.7805"><g transform="translate(-24.478 -36.495)" fill="#0ff" fill-opacity=".49784" stroke-width="4.7805"><path d="m114.45 97.709c-32.419-12.376-67.137-10.519-89.973 4.8136 6.7102 26.674 31.268 51.286 63.642 63.781 32.494 12.407 67.293 10.512 90.123-4.9076-6.7871-26.671-31.402-51.246-63.792-63.687z" opacity=".67585"/><path d="m175.16 121.01c32.374 12.495 56.931 37.107 63.642 63.781-22.835 15.333-57.554 17.19-89.973 4.8137-32.45-12.522-57.042-37.215-63.69-63.951 22.89-15.279 57.626-17.071 90.021-4.6435z" opacity=".67585"/><path d="m177.59 126.47c12.376-32.419 10.519-67.137-4.8136-89.973-26.674 6.7102-51.286 31.268-63.781 63.642-12.407 32.494-10.512 67.293 4.9076 90.123 26.671-6.7871 51.246-31.402 63.687-63.792z" opacity=".67585"/><path d="m154.29 187.18c-12.495 32.374-37.107 56.931-63.781 63.642-15.333-22.835-17.19-57.554-4.8137-89.973 12.522-32.45 37.215-57.042 63.951-63.69 15.279 22.89 17.071 57.626 4.6435 90.021z" opacity=".67585"/><path d="m175.16 166.3c32.374-12.495 56.931-37.107 63.642-63.781-22.835-15.333-57.554-17.19-89.973-4.8137-32.45 12.522-57.042 37.215-63.69 63.951 22.89 15.279 57.626 17.071 90.021 4.6435z" opacity=".67585"/><path d="m114.45 189.61c-32.419 12.376-67.137 10.519-89.973-4.8136 6.7102-26.674 31.268-51.286 63.642-63.781 32.494-12.407 67.292-10.512 90.123 4.9076-6.787 26.671-31.402 51.246-63.792 63.687z" opacity=".67585"/><path d="m154.29 100.14c-12.495-32.374-37.107-56.931-63.781-63.642-15.333 22.835-17.19 57.554-4.8137 89.973 12.522 32.45 37.215 57.042 63.951 63.69 15.279-22.89 17.071-57.626 4.6435-90.021z" opacity=".67585"/><path d="m177.59 160.85c12.376 32.419 10.519 67.138-4.8136 89.973-26.674-6.7102-51.286-31.268-63.781-63.642-12.407-32.494-10.512-67.292 4.9076-90.123 26.671 6.787 51.246 31.402 63.687 63.792z" opacity=".67585"/></g></g><path d="m140.31 70.811v-4.8781c0.66656 0.01441 1.3369-0.03582 2.0001 0.04222 0.5366 0.05513 1.0628 0.42195 1.151 0.98027 0.12344 0.53137 7e-3 1.1675-0.4737 1.4864-0.2395 0.12692-0.44486 0.20624-0.21286 0.44236 0.38406 0.64229 0.7681 1.2846 1.1522 1.9269h-0.95999c-0.37208-0.64371-0.74417-1.2874-1.1163-1.9311h-0.69208v1.9311h-0.84837zm1.4065-2.6232c0.47416 0.03963 0.98229-0.33031 0.92561-0.84056 0.0374-0.48344-0.45819-0.72814-0.87643-0.69919-0.20244-0.0016-0.40488-3.1e-4 -0.60732-7.08e-4v1.5404h0.55814zm0.12281 4.2753c-1.4184 0.02884-2.8721-0.69626-3.5591-1.964-0.67744-1.2082-0.71588-2.7492-0.13606-4.0024 0.59077-1.2966 1.9539-2.1525 3.3653-2.2164 1.3048-0.1111 2.6539 0.41878 3.4895 1.4363 1.3206 1.5535 1.2448 4.1053-0.18932 5.5616-0.76548 0.79463-1.8767 1.1979-2.9704 1.1848zm0-0.59162c1.3901 0.03094 2.7435-0.86922 3.225-2.1787 0.54023-1.4012 0.14857-3.1426-1.0504-4.0838-1.4123-1.1534-3.7563-0.96577-4.8913 0.49071-1.1768 1.4605-0.96449 3.8554 0.52566 5.0252 0.61455 0.50144 1.4007 0.7561 2.1911 0.74657z" fill="#0ff" opacity=".67585" stroke-width=".202" aria-label="®"/></g></svg>
